<svg width="237" height="76" viewBox="0 0 237 76" fill="none" xmlns="http://www.w3.org/2000/svg">
<g clip-path="url(#clip0_4056_16950)">
<path d="M36.7461 0.999695C57.1805 0.999695 73.7459 17.5653 73.7461 37.9997C73.7461 50.4761 67.5701 61.5095 58.1094 68.2116V23.0349L22.9609 21.1208L41.9629 34.6706V74.6315C40.2584 74.8721 38.517 74.9997 36.7461 74.9997C16.3116 74.9997 -0.253906 58.4342 -0.253906 37.9997C-0.253741 17.5653 16.3117 0.999695 36.7461 0.999695ZM33.9492 53.5134C32.1371 53.5137 30.6681 55.5341 30.668 58.0261C30.668 60.5182 32.137 62.5394 33.9492 62.5397C35.7617 62.5397 37.2314 60.5185 37.2314 58.0261C37.2313 55.5339 35.7616 53.5134 33.9492 53.5134Z" fill="#CCA7FF"/>
</g>
<path d="M102.383 19.9019H115.981C121.681 19.9019 126.08 21.4851 129.18 24.6514C132.28 27.8511 133.829 32.2006 133.829 37.7C133.829 43.1994 132.28 47.5323 129.18 50.6986C126.08 53.8983 121.681 55.4981 115.981 55.4981H102.383V19.9019ZM109.132 49.6987H115.881C119.381 49.6987 122.081 48.6822 123.98 46.649C125.88 44.5826 126.83 41.5996 126.83 37.7C126.83 33.8004 125.88 30.8341 123.98 28.801C122.081 26.7345 119.381 25.7013 115.881 25.7013H109.132V49.6987Z" fill="white"/>
<path d="M163.161 42.5995C163.161 46.6657 161.962 49.932 159.562 52.3984C157.162 54.8648 153.996 56.098 150.063 56.098C146.13 56.098 142.964 54.8648 140.564 52.3984C138.131 49.9654 136.914 46.699 136.914 42.5995C136.914 38.4999 138.131 35.2336 140.564 32.8005C142.964 30.3341 146.13 29.101 150.063 29.101C153.996 29.101 157.162 30.3175 159.562 32.7506C161.962 35.1836 163.161 38.4666 163.161 42.5995ZM145.113 48.7488C146.313 50.182 147.963 50.8986 150.063 50.8986C152.163 50.8986 153.796 50.182 154.962 48.7488C156.162 47.2823 156.762 45.2325 156.762 42.5995C156.762 39.9664 156.162 37.9333 154.962 36.5001C153.796 35.0336 152.163 34.3004 150.063 34.3004C147.963 34.3004 146.313 35.017 145.113 36.4502C143.947 37.8833 143.364 39.9331 143.364 42.5995C143.364 45.2659 143.947 47.3156 145.113 48.7488Z" fill="white"/>
<path d="M192.211 42.5995C192.211 46.6657 191.011 49.932 188.611 52.3984C186.212 54.8648 183.045 56.098 179.112 56.098C175.179 56.098 172.013 54.8648 169.613 52.3984C167.18 49.9654 165.964 46.699 165.964 42.5995C165.964 38.4999 167.18 35.2336 169.613 32.8005C172.013 30.3341 175.179 29.101 179.112 29.101C183.045 29.101 186.212 30.3175 188.611 32.7506C191.011 35.1836 192.211 38.4666 192.211 42.5995ZM174.163 48.7488C175.363 50.182 177.013 50.8986 179.112 50.8986C181.212 50.8986 182.845 50.182 184.012 48.7488C185.212 47.2823 185.812 45.2325 185.812 42.5995C185.812 39.9664 185.212 37.9333 184.012 36.5001C182.845 35.0336 181.212 34.3004 179.112 34.3004C177.013 34.3004 175.363 35.017 174.163 36.4502C172.996 37.8833 172.413 39.9331 172.413 42.5995C172.413 45.2659 172.996 47.3156 174.163 48.7488Z" fill="white"/>
<path d="M209.962 29.3009C210.528 29.3009 211.045 29.3343 211.512 29.4009V35.2003H209.912C207.512 35.2003 205.662 35.8169 204.362 37.0501C203.096 38.25 202.463 40.0331 202.463 42.3995V55.4981H196.163V29.7009H202.263V34.3004C203.696 30.9674 206.262 29.3009 209.962 29.3009Z" fill="white"/>
<path d="M212.527 25.6013V19.9019H236.874V25.3014C232.841 29.5676 229.925 34.0337 228.125 38.6999C226.259 43.4994 225.275 49.0988 225.175 55.4981H218.176C218.376 43.9993 222.309 34.0337 229.975 25.6013H212.527Z" fill="white"/>
<defs>
<clipPath id="clip0_4056_16950">
<rect width="74.4615" height="74.4615" fill="white" transform="translate(0 0.769226)"/>
</clipPath>
</defs>
</svg>
